<svg t="1597221757776" class="icon" viewBox="0 0 1024 1024" version="1.1" xmlns="http://www.w3.org/2000/svg" p-id="2386" width="32" height="32"><path d="M512 512m-512 0a512 512 0 1 0 1024 0 512 512 0 1 0-1024 0Z" fill="#FBD971" p-id="2387"></path><path d="M304.761905 329.142857m-85.333334 0a85.333333 85.333333 0 1 0 170.666667 0 85.333333 85.333333 0 1 0-170.666667 0Z" fill="#AF8066" p-id="2388"></path><path d="M694.857143 329.142857m-85.333333 0a85.333333 85.333333 0 1 0 170.666666 0 85.333333 85.333333 0 1 0-170.666666 0Z" fill="#AF8066" p-id="2389"></path><path d="M512 877.714286c-161.328762 0-292.571429-131.242667-292.571429-292.571429a24.380952 24.380952 0 0 1 48.761905 0c0 134.436571 109.372952 243.809524 243.809524 243.809524s243.809524-109.372952 243.809524-243.809524a24.380952 24.380952 0 0 1 48.761905 0c0 161.328762-131.242667 292.571429-292.571429 292.571429z" fill="#F0C419" p-id="2390"></path></svg>