<svg t="1597222070273" class="icon" viewBox="0 0 1024 1024" version="1.1" xmlns="http://www.w3.org/2000/svg" p-id="4801" width="128" height="128"><path d="M978.71872 524.62592a79.18592 79.18592 0 0 0-68.36224-39.24992c-11.30496 0-22.58944 2.56-32.9216 7.15776l-117.8112-35.18464c-6.0416-162.64192-7.49568-373.6576-7.55712-375.7568l-0.256-42.47552-93.62432 156.83584L679.1168 10.56768l-28.16 47.2064c-23.08096 38.76864-91.2384 142.1312-128.4608 154.5728a314.90048 314.90048 0 0 1-99.6352 16.09728c-134.25664 0-237.6704-84.51072-238.71488-85.34016l-32.8192-27.20768 14.03904 40.2432c0.90112 2.56 90.01984 259.25632 114.78016 396.31872l-89.9584 95.22176c-40.6016 4.06528-71.66976 37.67296-71.66976 78.47936 0 43.47904 35.86048 78.87872 79.95392 78.87872 44.06272 0 79.93344-35.39968 79.93344-78.87872a77.71136 77.71136 0 0 0-9.51296-37.3248l18.98496-20.11136c-1.83296 196.07552-68.89472 312.04352-69.5808 313.21088l-10.57792 18.0224h285.97248l60.1088-107.66336 31.47776 92.3136 254.63808-5.10976-4.58752-15.0016c-0.64512-2.21184-64.64512-214.09792-67.00032-358.36928-1.59744-15.17568-3.08224-34.36544-4.5056-58.30656l66.07872 19.712a77.1072 77.1072 0 0 0 10.36288 37.0176c13.9776 24.18688 40.21248 39.30112 68.46464 39.30112h0.03072c14.0288 0 27.93472-3.84 40.22272-10.87488a79.8208 79.8208 0 0 0 37.376-48.18944 78.09024 78.09024 0 0 0-7.63904-60.16z m-15.28832 53.83168a56.32 56.32 0 0 1-26.35776 34.00704 57.37472 57.37472 0 0 1-28.33408 7.59808h-0.03072a55.40864 55.40864 0 0 1-47.91296-27.37152 53.59616 53.59616 0 0 1-6.912-32.67584l0.96256-9.75872-116.55168-34.88768 0.90112 16.86528c1.72032 32.36864 3.54304 57.38496 5.43744 75.32544 2.03776 125.7984 48.72192 297.27744 63.56992 348.79488l-206.08 4.18816-43.008-126.33088-79.38048 141.96736H248.05376c20.64384-42.89536 67.55328-160.6144 63.3344-337.32608l-0.69632-28.78464-72.07936 76.26752 5.72416 7.96672a54.41536 54.41536 0 0 1 10.31168 31.8464c0 30.4128-25.1904 55.17312-56.17664 55.17312s-56.2176-24.76032-56.2176-55.17312c0-29.65504 23.63392-53.94432 53.85216-55.11168l4.82304-0.22528 104.58112-110.67392-0.96256-5.888c-18.432-107.59168-79.09376-294.07232-104.96-371.1488 42.0864 26.97216 123.82208 69.04832 223.25248 69.04832 36.53632 0 72.6016-5.79584 107.14112-17.32608 35.33824-11.79648 83.38432-76.14464 113.6128-121.25184l-21.2992 188.81536 106.4448-178.40128c0.78848 72.01792 2.84672 222.11584 7.46496 342.74304l0.31744 8.47872 143.17568 42.72128 4.23936-2.2016c25.81504-13.47584 59.98592-3.82976 74.24 20.74624 7.34208 12.7488 9.216 27.61728 5.25312 41.984z" fill="#000000" p-id="4802"></path><path d="M459.84768 432.13824a63.35488 63.35488 0 0 0-14.87872-40.91904c1.65888 3.64544 2.62144 7.66976 2.62144 11.90912a29.04064 29.04064 0 0 1-29.04064 29.00992c-4.20864 0-8.192-0.94208-11.79648-2.56-11.03872-4.13696-18.8928-14.44864-18.8928-26.5728 0-13.8752 10.26048-25.42592 23.84896-27.98592a28.4672 28.4672 0 0 1 6.84032-0.90112c1.6896 0 3.34848 0.22528 4.9664 0.4608a64.27648 64.27648 0 0 0-27.4944-6.26688c-35.28704 0-63.91808 28.60032-63.91808 63.82592a63.8976 63.8976 0 0 0 63.91808 63.87712 63.8464 63.8464 0 0 0 63.82592-63.87712zM668.48768 403.00544c0 10.05568-5.40672 18.87232-13.54752 23.95136a28.90752 28.90752 0 0 1-16.51712 5.18144 29.0304 29.0304 0 0 1-29.00992-29.00992v-0.06144-0.06144c0-1.15712 0.21504-2.26304 0.3584-3.3792a28.94848 28.94848 0 0 1 28.65152-25.50784c1.72032 0 3.31776 0.22528 4.94592 0.4608a64.2048 64.2048 0 0 0-27.4944-6.26688 63.86688 63.86688 0 0 0-63.88736 63.82592 63.87712 63.87712 0 1 0 127.744 0 63.51872 63.51872 0 0 0-12.9024-38.17472c0.99328 2.8672 1.65888 5.86752 1.65888 9.04192zM642.26304 565.95456c-13.71136 19.6608-55.33696 68.48512-114.8928 76.8512-60.928 8.48896-79.90272-5.33504-123.04384-40.97024 0 0-4.73088-3.55328-0.256 3.19488 107.74528 143.4624 240.384-13.02528 238.19264-39.07584zM388.05504 567.68512c-7.23968 0-13.13792 5.34528-13.13792 12.05248 0 0.52224 0.09216 1.09568 0.14336 1.55648 0.90112 5.92896 6.36928 10.45504 12.99456 10.45504 6.6048 0 12.06272-4.52608 12.96384-10.45504a12.5952 12.5952 0 0 0 0.09216-1.55648c0-6.69696-5.84704-12.05248-13.056-12.05248zM648.31488 533.98528c-7.26016 0-13.1072 5.39648-13.1072 11.97056 0 0.58368 0.0512 1.09568 0.11264 1.61792 0.90112 5.81632 6.36928 10.45504 12.99456 10.45504s12.06272-4.63872 12.96384-10.45504a9.14432 9.14432 0 0 0 0.14336-1.61792c0-6.56384-5.84704-11.97056-13.1072-11.97056zM618.51648 675.24608c-64.1536 30.6176-73.56416 61.36832-75.53024 61.72672-6.92224 4.17792-25.81504 2.67264-24.18688 2.42688-27.89376-33.5872-89.98912-38.00064-89.98912-38.00064-24.38144 59.392 5.7856 107.9296 5.7856 107.9296 51.41504-5.39648 88.064-47.37024 88.73984-45.9776 18.2272-2.67264 23.83872-3.23584 24.03328-2.08896 57.69216 31.27296 96.3584 25.00608 96.3584 25.00608 6.912-23.08096 3.98336-48.60928 3.92192-49.70496-4.4032-36.85376-29.1328-61.31712-29.1328-61.31712z" fill="#000000" p-id="4803"></path></svg>