<svg t="1637807738918" class="icon" viewBox="0 0 1024 1024" version="1.1" xmlns="http://www.w3.org/2000/svg" p-id="1268" width="200" height="200"><path d="M362.887732 810.623141c-80.208752-49.894228-133.642309-138.803544-133.642309-240.213906h565.481664c0 101.417235-53.426685 190.319678-133.649181 240.213906a152.706577 152.706577 0 0 1-27.221906 65.013691c176.347919-71.350121 300.781101-244.186201 300.781101-446.113503 0-38.946362-4.687034-76.793128-13.428833-113.052349a455.948027 455.948027 0 0 0-101.568429-137.43592c-76.93745-45.963168-167.564886-71.013369-263.800269-67.50153-265.504644 9.676456-472.89557 232.764134-463.212241 498.268779a481.829799 481.829799 0 0 0 17.476725 112.275758 455.948027 455.948027 0 0 0 82.243006 111.402953 478.249235 478.249235 0 0 0 231.987544 76.208967 153.036456 153.036456 0 0 1-61.44-99.066846z m289.633932-499.835705l38.870766 38.88451-61.646175 61.639302 61.653047 61.646175-38.877638 38.877637L551.997852 411.311248l100.523812-100.523812zM332.586953 349.671946l38.870765-38.88451L471.98153 411.318121 371.457718 511.841933l-38.870765-38.877638 61.646175-61.646174-61.646175-61.646175z" fill="#FFCE00" p-id="1269"></path><path d="M921.215141 316.477852a481.761074 481.761074 0 0 1 13.428832 113.045477c0 201.934174-124.426309 374.770255-300.781101 446.106631-27.544913 37.839893-71.906792 62.457128-121.869744 62.457127a149.325315 149.325315 0 0 1-87.658524-28.3971 478.221745 478.221745 0 0 1-231.994416-76.215839c82.05745 81.590121 195.068564 132.089128 319.65294 132.089127 250.103409 0 453.57702-203.473611 453.57702-453.57702 0-69.961879-15.937289-136.281342-44.348135-195.515275z" fill="#FFB100" p-id="1270"></path><path d="M555.846443 111.53353c96.235383-3.511839 186.862819 21.538362 263.807141 67.50153C738.743839 104.214336 630.61906 58.416107 511.993128 58.416107 261.889718 58.416107 58.416107 261.889718 58.416107 511.993128a450.731812 450.731812 0 0 0 51.687947 210.084939 481.829799 481.829799 0 0 1-17.483598-112.275758C82.950872 344.297664 290.334926 121.216859 555.846443 111.540403z" fill="#FFE454" p-id="1271"></path><path d="M511.993128 3.436242C231.575195 3.436242 3.436242 231.575195 3.436242 511.993128s228.138953 508.556886 508.556886 508.556885 508.556886-228.138953 508.556885-508.556885S792.41106 3.436242 511.993128 3.436242z m0 962.133906c-124.584376 0-237.588617-50.499007-319.646068-132.089128a456.037369 456.037369 0 0 1-82.243006-111.402953A450.731812 450.731812 0 0 1 58.416107 511.993128C58.416107 261.889718 261.889718 58.416107 511.993128 58.416107c118.625933 0 226.750711 45.798228 307.660456 120.618953a455.948027 455.948027 0 0 1 101.561557 137.442792 450.834899 450.834899 0 0 1 44.355007 195.515276c0 250.103409-203.473611 453.57702-453.57702 453.57702z" fill="#000000" p-id="1272"></path><path d="M371.464591 511.841933l100.516939-100.530685L371.457718 310.787436l-38.870765 38.88451 61.646175 61.639302-61.646175 61.646175zM691.39243 472.964295l-61.646175-61.653047 61.646175-61.639302-38.870766-38.88451L551.997852 411.318121l100.523812 100.530684z" fill="#000000" p-id="1273"></path><path d="M359.650792 740.661262v-56.856054h302.389262v56.34749c34.362416-29.998389 59.233933-69.74196 70.43608-114.77047H290.939705c11.257128 45.289664 37.784913 85.218792 68.711087 115.279034z" fill="#FFFFFF" p-id="1274"></path><path d="M794.73396 570.409235H229.252295c0 101.417235 53.426685 190.319678 133.642309 240.213906a153.015839 153.015839 0 0 0 61.44 99.066846 149.352805 149.352805 0 0 0 87.658524 28.3971c49.962953 0 94.331705-24.617235 121.876617-62.450255a152.706577 152.706577 0 0 0 27.221906-65.013691c80.208752-49.894228 133.635436-138.796671 133.635436-240.213906z m-283.888537 312.697986c-53.948993 0-96.214765-42.911785-96.214765-97.692349v-46.629798h192.42953v46.629798c0 54.780564-42.265772 97.692349-96.214765 97.692349z m221.067168-257.71812h0.563543c-11.202148 45.02851-36.073664 84.765208-70.43608 114.763597v-56.354362h-302.389262v56.862926c-30.926174-30.060242-57.45396-69.989369-68.711087-115.272161h440.972886z" fill="#000000" p-id="1275"></path><path d="M607.060188 785.414872v-46.629798h-192.42953v46.629798c0 54.773691 42.265772 97.692349 96.214765 97.692349s96.214765-42.911785 96.214765-97.692349z" fill="#E36600" p-id="1276"></path></svg>